<mxfile host="app.diagrams.net" modified="2024-05-22T05:37:06.095Z" agent="Mozilla/5.0 (Windows NT 10.0; Win64; x64) AppleWebKit/537.36 (KHTML, like Gecko) Chrome/124.0.0.0 Safari/537.36" etag="eFjrFjzhEHtBIuofffwk" version="24.4.4" type="device">
  <diagram name="第 1 页" id="3xM15-5e25fEDS3Bbd2N">
    <mxGraphModel dx="881" dy="394" grid="1" gridSize="10" guides="1" tooltips="1" connect="1" arrows="1" fold="1" page="1" pageScale="1" pageWidth="827" pageHeight="1169" math="0" shadow="0">
      <root>
        <mxCell id="0" />
        <mxCell id="1" parent="0" />
        <mxCell id="sAsD7aFiQbrTcGRVyL91-22" style="edgeStyle=orthogonalEdgeStyle;rounded=0;orthogonalLoop=1;jettySize=auto;html=1;" parent="1" source="-pWdXeYz840lx6kYOBsc-7" target="sAsD7aFiQbrTcGRVyL91-21" edge="1">
          <mxGeometry relative="1" as="geometry" />
        </mxCell>
        <mxCell id="sAsD7aFiQbrTcGRVyL91-23" style="edgeStyle=orthogonalEdgeStyle;rounded=0;orthogonalLoop=1;jettySize=auto;html=1;" parent="1" source="-pWdXeYz840lx6kYOBsc-7" target="sAsD7aFiQbrTcGRVyL91-20" edge="1">
          <mxGeometry relative="1" as="geometry" />
        </mxCell>
        <mxCell id="-pWdXeYz840lx6kYOBsc-7" value="&lt;blockquote style=&quot;margin: 0 0 0 40px; border: none; padding: 0px;&quot;&gt;&lt;blockquote style=&quot;margin: 0 0 0 40px; border: none; padding: 0px;&quot;&gt;&lt;blockquote style=&quot;margin: 0 0 0 40px; border: none; padding: 0px;&quot;&gt;&lt;span style=&quot;background-color: initial;&quot;&gt;Exclude:&lt;/span&gt;&lt;/blockquote&gt;&lt;/blockquote&gt;&lt;blockquote style=&quot;margin: 0 0 0 40px; border: none; padding: 0px;&quot;&gt;&lt;blockquote style=&quot;margin: 0 0 0 40px; border: none; padding: 0px;&quot;&gt;&lt;span style=&quot;background-color: initial; font-family: 新細明體, serif; text-indent: -18pt;&quot;&gt;1. 病歷號對應多組性別年齡&lt;/span&gt;&lt;/blockquote&gt;&lt;/blockquote&gt;&lt;blockquote style=&quot;margin: 0 0 0 40px; border: none; padding: 0px;&quot;&gt;&lt;blockquote style=&quot;margin: 0 0 0 40px; border: none; padding: 0px;&quot;&gt;&lt;span style=&quot;background-color: initial; text-indent: -18pt;&quot;&gt;&lt;font size=&quot;1&quot; face=&quot;Times New Roman&quot;&gt;2.&amp;nbsp;&lt;/font&gt;&lt;/span&gt;&lt;span style=&quot;background-color: initial; text-indent: -18pt; font-family: 新細明體, serif;&quot;&gt;小於&lt;/span&gt;&lt;span style=&quot;background-color: initial; text-indent: -18pt; font-family: &amp;quot;Arial Unicode MS&amp;quot;;&quot;&gt; 18 &lt;/span&gt;&lt;span style=&quot;background-color: initial; text-indent: -18pt; font-family: 新細明體, serif;&quot;&gt;歲患者 =&amp;gt; create age column&lt;br&gt;&lt;/span&gt;&lt;/blockquote&gt;&lt;/blockquote&gt;&lt;blockquote style=&quot;margin: 0 0 0 40px; border: none; padding: 0px;&quot;&gt;&lt;blockquote style=&quot;margin: 0 0 0 40px; border: none; padding: 0px;&quot;&gt;&lt;span style=&quot;background-color: initial; text-indent: -18pt; font-family: 新細明體, serif;&quot;&gt;3.&amp;nbsp; 確診多次檢驗一次&lt;/span&gt;&lt;span style=&quot;background-color: initial; text-indent: -18pt;&quot;&gt;?&lt;/span&gt;&lt;/blockquote&gt;&lt;/blockquote&gt;&lt;blockquote style=&quot;margin: 0 0 0 40px; border: none; padding: 0px;&quot;&gt;&lt;blockquote style=&quot;margin: 0 0 0 40px; border: none; padding: 0px;&quot;&gt;&lt;div&gt;&lt;span style=&quot;background-color: initial; text-indent: -18pt; font-variant-numeric: normal; font-variant-east-asian: normal; font-variant-alternates: normal; font-kerning: auto; font-optical-sizing: auto; font-feature-settings: normal; font-variation-settings: normal; font-variant-position: normal; font-stretch: normal; line-height: normal;&quot;&gt;4.&amp;nbsp;&lt;/span&gt;&lt;span style=&quot;background-color: initial; text-indent: -18pt; font-family: 新細明體, serif;&quot;&gt;追蹤至少一年&lt;/span&gt;&lt;/div&gt;&lt;/blockquote&gt;&lt;/blockquote&gt;&lt;/blockquote&gt;&lt;div&gt;&lt;div&gt;&lt;div&gt;&lt;p style=&quot;margin-left:36.0pt;text-indent:-18.0pt;mso-list:l0 level1 lfo1&quot; class=&quot;MsoNormal&quot;&gt;&lt;/p&gt;&lt;/div&gt;&lt;/div&gt;&lt;/div&gt;" style="rounded=0;whiteSpace=wrap;html=1;align=left;" parent="1" vertex="1">
          <mxGeometry x="200" y="200" width="440" height="120" as="geometry" />
        </mxCell>
        <mxCell id="sAsD7aFiQbrTcGRVyL91-19" style="edgeStyle=orthogonalEdgeStyle;rounded=0;orthogonalLoop=1;jettySize=auto;html=1;" parent="1" source="wnqdbfKmsMn4LfMNQnRy-1" target="-pWdXeYz840lx6kYOBsc-7" edge="1">
          <mxGeometry relative="1" as="geometry" />
        </mxCell>
        <mxCell id="wnqdbfKmsMn4LfMNQnRy-1" value="有糖尿病併發症患者&lt;div&gt;(n=)&lt;/div&gt;" style="rounded=0;whiteSpace=wrap;html=1;" parent="1" vertex="1">
          <mxGeometry x="480" y="40" width="200" height="80" as="geometry" />
        </mxCell>
        <mxCell id="sAsD7aFiQbrTcGRVyL91-1" style="edgeStyle=orthogonalEdgeStyle;rounded=0;orthogonalLoop=1;jettySize=auto;html=1;" parent="1" source="uECSBIAvJJYsoIraeoBA-1" target="-pWdXeYz840lx6kYOBsc-7" edge="1">
          <mxGeometry relative="1" as="geometry">
            <mxPoint x="140" y="180" as="targetPoint" />
          </mxGeometry>
        </mxCell>
        <mxCell id="uECSBIAvJJYsoIraeoBA-1" value="無糖尿病併發症患者&lt;div&gt;(n=)&lt;/div&gt;" style="rounded=0;whiteSpace=wrap;html=1;" parent="1" vertex="1">
          <mxGeometry x="160" y="40" width="200" height="80" as="geometry" />
        </mxCell>
        <mxCell id="sAsD7aFiQbrTcGRVyL91-29" style="edgeStyle=orthogonalEdgeStyle;rounded=0;orthogonalLoop=1;jettySize=auto;html=1;" parent="1" source="sAsD7aFiQbrTcGRVyL91-9" target="sAsD7aFiQbrTcGRVyL91-27" edge="1">
          <mxGeometry relative="1" as="geometry" />
        </mxCell>
        <mxCell id="sAsD7aFiQbrTcGRVyL91-30" style="edgeStyle=orthogonalEdgeStyle;rounded=0;orthogonalLoop=1;jettySize=auto;html=1;" parent="1" source="sAsD7aFiQbrTcGRVyL91-9" target="sAsD7aFiQbrTcGRVyL91-26" edge="1">
          <mxGeometry relative="1" as="geometry" />
        </mxCell>
        <mxCell id="sAsD7aFiQbrTcGRVyL91-9" value="&lt;blockquote style=&quot;margin: 0 0 0 40px; border: none; padding: 0px;&quot;&gt;&lt;blockquote style=&quot;margin: 0 0 0 40px; border: none; padding: 0px;&quot;&gt;Matching:&lt;/blockquote&gt;&lt;blockquote style=&quot;margin: 0 0 0 40px; border: none; padding: 0px;&quot;&gt;&lt;div&gt;&lt;span style=&quot;text-indent: -18pt; background-color: initial; font-family: &amp;quot;Arial Unicode MS&amp;quot;;&quot;&gt;1. 使用&lt;/span&gt;&lt;span style=&quot;text-indent: -18pt; background-color: initial; font-family: &amp;quot;Arial Unicode MS&amp;quot;;&quot; lang=&quot;EN-US&quot;&gt;CHR_NO&lt;/span&gt;&lt;span style=&quot;text-indent: -18pt; background-color: initial; font-family: 新細明體, serif;&quot;&gt;、&lt;/span&gt;&lt;span style=&quot;text-indent: -18pt; background-color: initial; font-family: &amp;quot;Arial Unicode MS&amp;quot;;&quot; lang=&quot;EN-US&quot;&gt;R_ITEM&lt;/span&gt;&lt;span style=&quot;text-indent: -18pt; background-color: initial; font-family: 新細明體, serif;&quot; lang=&quot;EN-US&quot;&gt; &lt;/span&gt;&lt;span style=&quot;text-indent: -18pt; background-color: initial; font-family: &amp;quot;Arial Unicode MS&amp;quot;;&quot; lang=&quot;EN-US&quot;&gt;Matching&lt;/span&gt;&lt;/div&gt;&lt;/blockquote&gt;&lt;blockquote style=&quot;margin: 0 0 0 40px; border: none; padding: 0px;&quot;&gt;&lt;div&gt;&lt;span style=&quot;text-indent: -18pt; background-color: initial; font-family: &amp;quot;Arial Unicode MS&amp;quot;;&quot;&gt;2. 使用下列變數:&lt;/span&gt;&lt;font style=&quot;text-indent: -18pt; background-color: initial;&quot; face=&quot;Times New Roman&quot;&gt;&amp;nbsp;(&lt;/font&gt;&lt;span style=&quot;text-indent: -18pt; background-color: initial; font-family: &amp;quot;Arial Unicode MS&amp;quot;;&quot;&gt;性別&lt;/span&gt;&lt;span style=&quot;text-indent: -18pt; background-color: initial;&quot;&gt;&lt;font size=&quot;1&quot; face=&quot;Times New Roman&quot;&gt;、&lt;/font&gt;&lt;/span&gt;&lt;span style=&quot;text-indent: -18pt; background-color: initial; font-family: &amp;quot;Arial Unicode MS&amp;quot;;&quot;&gt;年齡、&lt;/span&gt;&lt;span style=&quot;text-indent: -18pt; background-color: initial;&quot;&gt;HbA1C_mean、&lt;/span&gt;&lt;span style=&quot;text-indent: -18pt; background-color: initial;&quot;&gt;HbA1C_SD、&lt;/span&gt;&lt;span style=&quot;text-indent: -18pt; background-color: initial;&quot;&gt;HbA1C_CV、&lt;/span&gt;&lt;span style=&quot;text-indent: -18pt; background-color: initial;&quot;&gt;HbA1C_variability score、&amp;nbsp;&lt;/span&gt;&lt;span style=&quot;text-indent: -18pt; background-color: initial; font-family: &amp;quot;Arial Unicode MS&amp;quot;;&quot; lang=&quot;EN-US&quot;&gt;Index Date&amp;nbsp;&lt;/span&gt;&lt;span style=&quot;text-indent: -18pt; background-color: initial; font-family: &amp;quot;Arial Unicode MS&amp;quot;;&quot;&gt;前一年&lt;/span&gt;&lt;span style=&quot;text-indent: -18pt; background-color: initial; font-family: 新細明體, serif;&quot;&gt;是否&lt;/span&gt;&lt;span style=&quot;text-indent: -18pt; background-color: initial; font-family: &amp;quot;Arial Unicode MS&amp;quot;;&quot;&gt;有特定疾病、&lt;/span&gt;&lt;span style=&quot;text-indent: -18pt; background-color: initial; font-family: &amp;quot;Arial Unicode MS&amp;quot;;&quot; lang=&quot;EN-US&quot;&gt;Index Date&lt;/span&gt;&lt;span style=&quot;text-indent: -18pt; background-color: initial;&quot; lang=&quot;EN-US&quot;&gt;&amp;nbsp;year&lt;/span&gt;&lt;span style=&quot;text-indent: -18pt; background-color: initial; font-size: x-small; font-family: &amp;quot;Times New Roman&amp;quot;;&quot;&gt;)&lt;/span&gt;&lt;/div&gt;&lt;/blockquote&gt;&lt;/blockquote&gt;" style="rounded=0;whiteSpace=wrap;html=1;align=left;" parent="1" vertex="1">
          <mxGeometry x="200" y="560" width="440" height="120" as="geometry" />
        </mxCell>
        <mxCell id="sAsD7aFiQbrTcGRVyL91-25" style="edgeStyle=orthogonalEdgeStyle;rounded=0;orthogonalLoop=1;jettySize=auto;html=1;" parent="1" source="sAsD7aFiQbrTcGRVyL91-20" target="sAsD7aFiQbrTcGRVyL91-9" edge="1">
          <mxGeometry relative="1" as="geometry" />
        </mxCell>
        <mxCell id="sAsD7aFiQbrTcGRVyL91-20" value="有糖尿病併發症患者&lt;div&gt;(n=)&lt;/div&gt;" style="rounded=0;whiteSpace=wrap;html=1;" parent="1" vertex="1">
          <mxGeometry x="480" y="400" width="200" height="80" as="geometry" />
        </mxCell>
        <mxCell id="sAsD7aFiQbrTcGRVyL91-24" style="edgeStyle=orthogonalEdgeStyle;rounded=0;orthogonalLoop=1;jettySize=auto;html=1;" parent="1" source="sAsD7aFiQbrTcGRVyL91-21" target="sAsD7aFiQbrTcGRVyL91-9" edge="1">
          <mxGeometry relative="1" as="geometry" />
        </mxCell>
        <mxCell id="sAsD7aFiQbrTcGRVyL91-21" value="無糖尿病併發症患者&lt;div&gt;(n=)&lt;/div&gt;" style="rounded=0;whiteSpace=wrap;html=1;" parent="1" vertex="1">
          <mxGeometry x="160" y="400" width="200" height="80" as="geometry" />
        </mxCell>
        <mxCell id="sAsD7aFiQbrTcGRVyL91-26" value="有糖尿病併發症患者&lt;div&gt;(n=)&lt;/div&gt;" style="rounded=0;whiteSpace=wrap;html=1;" parent="1" vertex="1">
          <mxGeometry x="480" y="770" width="200" height="80" as="geometry" />
        </mxCell>
        <mxCell id="sAsD7aFiQbrTcGRVyL91-27" value="無糖尿病併發症患者&lt;div&gt;(n=)&lt;/div&gt;" style="rounded=0;whiteSpace=wrap;html=1;" parent="1" vertex="1">
          <mxGeometry x="160" y="770" width="200" height="80" as="geometry" />
        </mxCell>
      </root>
    </mxGraphModel>
  </diagram>
</mxfile>
